# File created by Blade
# Date/Time:  Tue Jan 27 18:02:00 2015
#---------------------------------------------------------
:version 1.10
:name HOM
:units
  mass 1.0
  length 1.000000
  angle deg
:documentation
     Acclaim Skeleton File
:root
   axis xyz
   order TX TY TZ RX RY RZ
   position 0.000000 0.000000 0.000000
   orientation 0 0 0
:bonedata
   begin
      id 1
      name Spine_dum
      direction 0.000000 1.000000 0.000000
      length 5.195262
      axis 0.0 0.0 0.0 xyz
   end
   begin
      id 2
      name LeftUpLeg_dum
      direction 1.000000 0.000000 0.000000
      length 3.351363
      axis 0.0 0.0 0.0 xyz
   end
   begin
      id 3
      name RightUpLeg_dum
      direction -1.000000 0.000000 0.000000
      length 3.351363
      axis 0.0 0.0 0.0 xyz
   end
   begin
      id 4
      name Spine
      direction 0.000000 1.000000 0.000000
      length 0.000000
      axis 0.0 0.0 0.0 xyz
      dof rx ry rz
   end
   begin
      id 5
      name Spine_dum1
      direction 0.000000 1.000000 0.000000
      length 15.653875
      axis 0.0 0.0 0.0 xyz
   end
   begin
      id 6
      name Spine_dum2
      direction 0.000000 1.000000 0.000000
      length 10.329768
      axis 0.0 0.0 0.0 xyz
   end
   begin
      id 7
      name Spine_dum3
      direction 0.000000 1.000000 0.000000
      length 10.329768
      axis 0.0 0.0 0.0 xyz
   end
   begin
      id 8
      name Head
      direction 0.000000 1.000000 0.000000
      length 4.527550
      axis 0.0 0.0 0.0 xyz
      dof rx ry rz
   end
   begin
      id 9
      name LeftShoulder
      direction 1.000000 0.000000 0.000000
      length 6.996006
      axis 0.0 0.0 -90.0 xyz
      dof rx ry rz
   end
   begin
      id 10
      name LeftArm
      direction 1.000000 0.000000 0.000000
      length 10.209302
      axis 0.0 0.0 -90.0 xyz
      dof rx ry rz
   end
   begin
      id 11
      name LeftForeArm
      direction 1.000000 0.000000 0.000000
      length 8.563163
      axis 0.0 0.0 -90.0 xyz
      dof ry rz rx
   end
   begin
      id 12
      name LeftHand
      direction 0.000000 0.000000 0.000000
      length 0.000000
      axis 0.0 0.0 -90.0 xyz
      dof rx ry rz
   end
   begin
      id 13
      name LeftHand_dum1
      direction 0.000000 0.000000 0.000000
      length 0.000000
      axis 0.0 0.0 -90.0 xyz
   end
   begin
      id 14
      name LeftHand_dum2
      direction 1.000000 0.000000 0.000000
      length 3.937000
      axis 0.0 0.0 -90.0 xyz
   end
   begin
      id 15
      name LeftHandThumb1
      direction 0.000000 0.000000 1.000000
      length 3.937000
      axis 0.0 0.0 -90.0 xyz
      dof rx rz ry
   end
   begin
      id 16
      name RightShoulder
      direction -1.000000 0.000000 0.000000
      length 6.996006
      axis 0.0 0.0 90.0 xyz
      dof rx ry rz
   end
   begin
      id 17
      name RightArm
      direction -1.000000 0.000000 0.000000
      length 10.209302
      axis 0.0 0.0 90.0 xyz
      dof rx ry rz
   end
   begin
      id 18
      name RightForeArm
      direction -1.000000 0.000000 0.000000
      length 8.563163
      axis 0.0 0.0 90.0 xyz
      dof ry rz rx
   end
   begin
      id 19
      name RightHand
      direction 0.000000 0.000000 0.000000
      length 0.000000
      axis 0.0 0.0 90.0 xyz
      dof rx ry rz
   end
   begin
      id 20
      name RightHand_dum1
      direction 0.000000 0.000000 0.000000
      length 0.000000
      axis 0.0 0.0 90.0 xyz
   end
   begin
      id 21
      name RightHand_dum2
      direction -1.000000 0.000000 0.000000
      length 3.937000
      axis 0.0 0.0 90.0 xyz
   end
   begin
      id 22
      name RightHandThumb1
      direction 0.000000 0.000000 1.000000
      length 3.937000
      axis 0.0 0.0 90.0 xyz
      dof rx rz ry
   end
   begin
      id 23
      name LeftUpLeg
      direction 0.000000 -1.000000 0.000000
      length 16.346831
      axis 0.0 0.0 0.0 xyz
      dof rx ry rz
   end
   begin
      id 24
      name LeftLeg
      direction 0.000000 -1.000000 0.000000
      length 13.959795
      axis 0.0 0.0 0.0 xyz
      dof rx ry rz
   end
   begin
      id 25
      name LeftFoot
      direction 0.000000 -0.258819 0.965926
      length 5.165550
      axis 15.0 0.0 0.0 xyz
      dof rx ry rz
   end
   begin
      id 26
      name LeftToeBase
      direction 0.000000 0.000000 1.000000
      length 2.952750
      axis 0.0 0.0 0.0 xyz
      dof rx ry rz
   end
   begin
      id 27
      name RightUpLeg
      direction 0.000000 -1.000000 0.000000
      length 16.346831
      axis 0.0 0.0 0.0 xyz
      dof rx ry rz
   end
   begin
      id 28
      name RightLeg
      direction 0.000000 -1.000000 0.000000
      length 13.959795
      axis 0.0 0.0 0.0 xyz
      dof rx ry rz
   end
   begin
      id 29
      name RightFoot
      direction 0.000000 -0.258819 0.965926
      length 5.165550
      axis 15.0 0.0 0.0 xyz
      dof rx ry rz
   end
   begin
      id 30
      name RightToeBase
      direction 0.000000 0.000000 1.000000
      length 2.952750
      axis 0.0 0.0 0.0 xyz
      dof rx ry rz
   end
:hierarchy
   begin
      root Spine_dum LeftUpLeg_dum RightUpLeg_dum
      Spine_dum Spine
      LeftUpLeg_dum LeftUpLeg
      RightUpLeg_dum RightUpLeg
      Spine Spine_dum1 Spine_dum2 Spine_dum3
      Spine_dum1 Head
      Spine_dum2 LeftShoulder
      Spine_dum3 RightShoulder
      LeftShoulder LeftArm
      LeftArm LeftForeArm
      LeftForeArm LeftHand
      LeftHand LeftHand_dum1 LeftHand_dum2
      LeftHand_dum1 LeftHandThumb1
      RightShoulder RightArm
      RightArm RightForeArm
      RightForeArm RightHand
      RightHand RightHand_dum1 RightHand_dum2
      RightHand_dum1 RightHandThumb1
      LeftUpLeg LeftLeg
      LeftLeg LeftFoot
      LeftFoot LeftToeBase
      RightUpLeg RightLeg
      RightLeg RightFoot
      RightFoot RightToeBase
   end

# File created by Blade
# Date/Time:  Tue Jan 27 18:01:49 2015
# Frame Rate: 120.000 fps
#------------------------------------------------------
:FULLY-SPECIFIED
:DEGREES
963
root -1.517967 31.946627 -6.210847 7.400489 26.114721 5.101347
Spine -8.150788 -1.347272 -4.329372
Head 1.597192 -11.409089 -3.090794
LeftShoulder -11.508865 14.494505 6.128732
LeftArm 25.012681 39.857785 -72.545584
LeftForeArm -1.811041 0.000000 12.955762
LeftHand -11.281711 -0.000000 -5.966990
LeftHandThumb1 -26.253704 0.000000 33.147579
RightShoulder -9.339716 39.909835 -55.809168
RightArm 73.068454 37.061097 91.521726
RightForeArm 23.658550 -0.000000 96.396043
RightHand -5.338642 -0.000000 12.176880
RightHandThumb1 -24.326973 -0.000000 -32.862282
LeftUpLeg -3.519484 -11.864244 -0.189789
LeftLeg -0.028926 -0.000000 0.000000
LeftFoot -11.592252 10.074015 -23.624857
LeftToeBase 8.460224 -0.000000 -0.000000
RightUpLeg 4.469196 -15.110246 -3.139401
RightLeg -4.011263 -0.000000 0.000000
RightFoot -17.429724 -20.810017 12.014142
RightToeBase 5.413605 -0.000000 -0.000000
964
root -1.512475 31.947280 -6.210788 7.395962 26.145813 5.128506
Spine -8.141742 -1.273919 -4.366205
Head 1.679263 -11.525613 -3.294970
LeftShoulder -11.444380 14.458294 6.113039
LeftArm 25.023738 39.893193 -72.476820
LeftForeArm -1.803563 -0.000000 12.993800
LeftHand -11.251343 -0.000000 -5.997882
LeftHandThumb1 -26.253704 0.000000 33.147579
RightShoulder -9.335876 40.179872 -55.733746
RightArm 74.176447 37.551879 94.360381
RightForeArm 24.321153 0.000000 96.764262
RightHand -5.120316 0.000000 12.340788
RightHandThumb1 -24.326973 -0.000000 -32.862282
LeftUpLeg -3.510755 -11.899443 -0.223248
LeftLeg -0.011136 -0.000000 0.000000
LeftFoot -11.589751 10.081502 -23.614522
LeftToeBase 8.499428 -0.000000 -0.000000
RightUpLeg 4.450290 -15.221458 -3.170544
RightLeg -3.918016 -0.000000 0.000000
RightFoot -17.467960 -20.767985 11.979924
RightToeBase 5.446011 -0.000000 -0.000000
965
root -1.508650 31.947834 -6.209916 7.389110 26.192515 5.132168
Spine -8.138244 -1.227072 -4.379851
Head 1.728139 -11.612383 -3.494368
LeftShoulder -11.398782 14.396896 6.109907
LeftArm 25.013067 39.965973 -72.424671
LeftForeArm -1.831972 -0.000000 13.025236
LeftHand -11.196536 -0.000000 -6.071311
LeftHandThumb1 -26.253704 0.000000 33.147579
RightShoulder -9.302540 40.395369 -55.616878
RightArm 75.403538 38.043144 97.181775
RightForeArm 25.123884 0.000000 97.096924
RightHand -4.952565 -0.000000 12.334749
RightHandThumb1 -24.326973 -0.000000 -32.862282
LeftUpLeg -3.505250 -11.950057 -0.227830
LeftLeg -0.007398 -0.000000 0.000000
LeftFoot -11.613483 10.096492 -23.664380
LeftToeBase 8.606829 -0.000000 -0.000000
RightUpLeg 4.458043 -15.268993 -3.177313
RightLeg -3.891308 -0.000000 0.000000
RightFoot -17.477021 -20.768080 11.987532
RightToeBase 5.374578 -0.000000 -0.000000
966
root -1.506626 31.947947 -6.209425 7.384719 26.238396 5.127582
Spine -8.135177 -1.181230 -4.389816
Head 1.744083 -11.686074 -3.683577
LeftShoulder -11.386160 14.367250 6.103750
LeftArm 25.067824 40.030675 -72.345862
LeftForeArm -1.845367 -0.000000 13.032995
LeftHand -11.260872 0.000000 -6.063661
LeftHandThumb1 -26.253704 0.000000 33.147579
RightShoulder -9.301713 40.567110 -55.508022
RightArm 76.699496 38.455912 99.994797
RightForeArm 25.892278 0.000000 97.359478
RightHand -4.502836 0.000000 12.596219
RightHandThumb1 -24.326973 -0.000000 -32.862282
LeftUpLeg -3.517488 -11.952852 -0.220770
LeftLeg 0.025262 -0.000000 -0.000000
LeftFoot -11.620068 10.034796 -23.680644
LeftToeBase 8.610629 -0.000000 -0.000000
RightUpLeg 4.487786 -15.193272 -3.169930
RightLeg -3.925772 -0.000000 0.000000
RightFoot -17.480869 -20.874824 12.034859
RightToeBase 5.386864 -0.000000 -0.000000
967
root -1.501056 31.948400 -6.208820 7.377465 26.288009 5.137366
Spine -8.128751 -1.129363 -4.402131
Head 1.714082 -11.763051 -3.864175
LeftShoulder -11.342620 14.354986 6.101498
LeftArm 25.105088 40.066031 -72.296223
LeftForeArm -1.834261 -0.000000 13.049121
LeftHand -11.228354 -0.000000 -6.100899
LeftHandThumb1 -26.253704 0.000000 33.147579
RightShoulder -9.294595 40.729881 -55.404658
RightArm 77.929463 38.873050 102.636450
RightForeArm 26.499730 -0.000000 97.589676
RightHand -4.091054 -0.000000 12.203488
RightHandThumb1 -24.326973 -0.000000 -32.862282
LeftUpLeg -3.510163 -12.017950 -0.232276
LeftLeg 0.033786 -0.000000 -0.000000
LeftFoot -11.616527 10.040966 -23.688270
LeftToeBase 8.608744 -0.000000 -0.000000
RightUpLeg 4.494667 -15.275419 -3.187648
RightLeg -3.884569 -0.000000 0.000000
RightFoot -17.496768 -20.844693 12.025041
RightToeBase 5.393958 -0.000000 -0.000000
968
root -1.495886 31.948900 -6.207867 7.369841 26.346585 5.145147
Spine -8.122450 -1.093786 -4.412667
Head 1.684578 -11.781912 -4.045291
LeftShoulder -11.309514 14.340775 6.106695
LeftArm 25.125602 40.099130 -72.264706
LeftForeArm -1.785627 -0.000000 13.075970
LeftHand -11.221224 -0.000000 -6.161982
LeftHandThumb1 -26.253704 0.000000 33.147579
RightShoulder -9.308936 40.818662 -55.337708
RightArm 79.285737 39.272523 105.395488
RightForeArm 27.125461 -0.000000 97.721630
RightHand -3.664641 -0.000000 12.563976
RightHandThumb1 -24.326973 -0.000000 -32.862282
LeftUpLeg -3.497898 -12.068062 -0.246200
LeftLeg 0.024357 -0.000000 -0.000000
LeftFoot -11.606129 10.071765 -23.643660
LeftToeBase 8.611744 -0.000000 -0.000000
RightUpLeg 4.516166 -15.329027 -3.202077
RightLeg -3.869890 -0.000000 0.000000
RightFoot -17.521908 -20.843460 12.081900
RightToeBase 5.415016 -0.000000 -0.000000
969
root -1.490631 31.949295 -6.207222 7.367724 26.404723 5.159164
Spine -8.117396 -1.076405 -4.427327
Head 1.639725 -11.775828 -4.219430
LeftShoulder -11.283439 14.318344 6.113391
LeftArm 25.139099 40.158967 -72.228420
LeftForeArm -1.768075 -0.000000 13.096695
LeftHand -11.228250 -0.000000 -6.215257
LeftHandThumb1 -26.253704 0.000000 33.147579
RightShoulder -9.359173 40.915580 -55.339966
RightArm 80.580387 39.661124 108.096669
RightForeArm 27.824128 -0.000000 97.837885
RightHand -3.291272 -0.000000 12.494102
RightHandThumb1 -24.326973 -0.000000 -32.862282
LeftUpLeg -3.492245 -12.111387 -0.262705
LeftLeg 0.030287 -0.000000 -0.000000
LeftFoot -11.591384 10.067288 -23.628035
LeftToeBase 8.559225 -0.000000 -0.000000
RightUpLeg 4.542980 -15.365987 -3.221906
RightLeg -3.874560 -0.000000 0.000000
RightFoot -17.524401 -20.863125 12.072001
RightToeBase 5.400190 -0.000000 -0.000000
970
root -1.485602 31.949654 -6.206910 7.360544 26.474984 5.166010
Spine -8.110334 -1.066319 -4.432082
Head 1.579830 -11.812381 -4.375371
LeftShoulder -11.250393 14.310105 6.116031
LeftArm 25.148570 40.188849 -72.200333
LeftForeArm -1.774584 -0.000000 13.122933
LeftHand -11.197073 -0.000000 -6.246931
LeftHandThumb1 -26.253704 0.000000 33.147579
RightShoulder -9.424296 41.042410 -55.382300
RightArm 81.790869 40.094876 110.732999
RightForeArm 28.414192 0.000000 97.901280
RightHand -2.984003 -0.000000 12.795277
RightHandThumb1 -24.326973 -0.000000 -32.862282
LeftUpLeg -3.486051 -12.128668 -0.273256
LeftLeg 0.033652 -0.000000 -0.000000
LeftFoot -11.572320 10.028161 -23.593879
LeftToeBase 8.620104 -0.000000 -0.000000
RightUpLeg 4.571412 -15.385640 -3.231310
RightLeg -3.874115 -0.000000 0.000000
RightFoot -17.546284 -20.890956 12.110633
RightToeBase 5.420964 -0.000000 -0.000000
971
root -1.480507 31.950456 -6.205508 7.354105 26.539275 5.178224
Spine -8.114303 -1.068021 -4.447061
Head 1.540450 -11.850805 -4.532096
LeftShoulder -11.224818 14.321408 6.121523
LeftArm 25.156967 40.215794 -72.177191
LeftForeArm -1.779670 0.000000 13.149488
LeftHand -11.202409 -0.000000 -6.242117
LeftHandThumb1 -26.253704 0.000000 33.147579
RightShoulder -9.447196 41.104438 -55.385628
RightArm 83.053132 40.502316 113.317217
RightForeArm 29.096802 -0.000000 97.948510
RightHand -2.854999 -0.000000 12.744879
RightHandThumb1 -24.326973 -0.000000 -32.862282
LeftUpLeg -3.471260 -12.168662 -0.285643
LeftLeg 0.027864 -0.000000 -0.000000
LeftFoot -11.556047 9.997921 -23.631949
LeftToeBase 8.613067 -0.000000 -0.000000
RightUpLeg 4.607151 -15.414662 -3.248063
RightLeg -3.885179 -0.000000 0.000000
RightFoot -17.529271 -20.926673 12.109266
RightToeBase 5.390747 -0.000000 -0.000000
